<svg width="247" height="247" viewBox="0 0 247 247" fill="none" xmlns="http://www.w3.org/2000/svg">
<g clip-path="url(#clip0_7_7662)">
<path d="M226.39 150.85C228.91 141.44 244.4 133.4 244.4 123.2C244.4 113 228.9 104.96 226.39 95.55C223.79 85.81 233.11 71.12 228.18 62.59C223.18 53.94 205.74 54.7 198.72 47.68C191.7 40.66 192.46 23.23 183.81 18.22C175.28 13.29 160.59 22.61 150.85 20.01C141.44 17.49 133.4 2 123.2 2C113 2 104.96 17.5 95.55 20.01C85.81 22.61 71.12 13.29 62.59 18.22C53.94 23.22 54.7 40.66 47.68 47.68C40.66 54.7 23.23 53.94 18.22 62.59C13.29 71.12 22.61 85.81 20.01 95.55C17.49 104.96 2 113 2 123.2C2 133.4 17.5 141.44 20.01 150.85C22.61 160.59 13.29 175.28 18.22 183.81C23.22 192.46 40.66 191.7 47.68 198.72C54.7 205.74 53.94 223.17 62.59 228.18C71.12 233.11 85.81 223.79 95.55 226.39C104.96 228.91 113 244.4 123.2 244.4C133.4 244.4 141.44 228.9 150.85 226.39C160.59 223.79 175.28 233.11 183.81 228.18C192.46 223.18 191.7 205.74 198.72 198.72C205.74 191.7 223.17 192.46 228.18 183.81C233.11 175.28 223.79 160.59 226.39 150.85Z" fill="#A91441" stroke="white" stroke-width="4" stroke-miterlimit="10"/>
<path d="M123.2 180.92C155.078 180.92 180.92 155.078 180.92 123.2C180.92 91.3221 155.078 65.48 123.2 65.48C91.3221 65.48 65.48 91.3221 65.48 123.2C65.48 155.078 91.3221 180.92 123.2 180.92Z" fill="white"/>
<path d="M159.54 124.07L166.52 110.11L151.2 112.82L147.13 103.71L130.46 124.26L139.96 91.3L129.88 93.24L123.21 78.71L116.54 93.24L106.46 91.3L115.96 124.26L99.29 103.71L95.22 112.82L79.9 110.11L86.88 124.07L79.9 131.05L104.91 139.78L99.07 151.42L122.22 146.21V167.7H124.22V146.21L147.37 151.42L141.53 139.78L166.54 131.05L159.56 124.07H159.54Z" fill="#A91441"/>
<path d="M65.4 78.93L52.46 66.94C51.69 66.23 51.63 65.11 52.4 64.27L56.33 60.02C58.9 57.25 63.04 56.75 66.05 59.54C69.26 62.52 69.45 66.41 66.54 69.56L63.93 72.38L67.98 76.13C68.9 76.99 68.97 78.07 68.17 78.92C67.37 79.77 66.31 79.78 65.39 78.92L65.4 78.93ZM63.61 67.75C65.12 66.12 65.01 63.9 63.54 62.53C61.96 61.06 59.9 61.2 58.33 62.9L56.19 65.21L61.45 70.08L63.61 67.75Z" fill="white"/>
<path d="M79.73 64.79L70.55 49.73C70 48.83 70.25 47.73 71.22 47.14L75.91 44.28C79.42 42.14 83.12 42.91 85.05 46.09C86.58 48.6 86.42 51.79 83.77 53.9L83.03 54.35L90.75 56.53C91.43 56.72 91.92 56.94 92.26 57.51C92.73 58.28 92.5 59.4 91.55 59.98C90.96 60.34 90.47 60.46 89.57 60.13L79.38 56.78L79.33 56.81L82.98 62.81C83.64 63.89 83.4 64.94 82.4 65.55C81.4 66.16 80.38 65.87 79.72 64.79H79.73ZM80.76 52.47C82.37 51.49 82.91 49.89 81.95 48.3C80.92 46.61 79.23 46.37 77.64 47.34L74.67 49.15L77.79 54.27L80.76 52.46V52.47Z" fill="white"/>
<path d="M94.35 46.54C92.79 40.07 95.69 34.83 101.43 33.44C107.29 32.02 112.16 35.57 113.67 41.84C115.17 48.05 112.56 53.46 106.61 54.9C100.72 56.32 95.84 52.75 94.34 46.54H94.35ZM109.69 42.83C108.68 38.63 105.93 35.96 102.23 36.86C98.73 37.7 97.29 41.2 98.34 45.54C99.33 49.62 102.06 52.39 105.82 51.48C109.44 50.61 110.68 46.94 109.69 42.83Z" fill="white"/>
<path d="M121.73 44.15L122.79 32.65C122.91 31.4 123.72 30.69 124.89 30.79C126.06 30.9 126.7 31.74 126.59 32.99L125.54 44.37C125.28 47.21 127.1 49.33 130.06 49.61C132.96 49.88 135.17 48.09 135.43 45.28L136.48 33.9C136.6 32.64 137.38 31.94 138.58 32.04C139.72 32.14 140.39 32.99 140.28 34.24L139.22 45.74C138.77 50.61 134.91 53.69 129.74 53.21C124.45 52.72 121.31 48.94 121.75 44.13L121.73 44.15Z" fill="white"/>
<path d="M144.62 53.43L151.69 37.27C152.12 36.28 153.18 35.89 154.19 36.34L159.52 38.67C164.63 40.91 166.39 46.62 163.92 52.25C161.17 58.54 155.46 60.21 150.9 58.21L145.62 55.9C144.6 55.46 144.19 54.39 144.61 53.43H144.62ZM151.82 54.78C155.23 56.27 158.35 54.82 160.26 50.45C161.99 46.49 160.94 43.12 157.7 41.7L154.51 40.3L148.76 53.44L151.81 54.77L151.82 54.78Z" fill="white"/>
<path d="M165.23 63.95L176.35 50.26C177.14 49.28 178.19 49.13 179.1 49.87C180.01 50.61 180.1 51.69 179.3 52.66L169.22 65.07L173.43 68.49C174.27 69.17 174.46 70.18 173.78 71.01C173.12 71.83 172.04 71.87 171.24 71.23L165.47 66.54C164.7 65.92 164.56 64.76 165.22 63.94L165.23 63.95Z" fill="white"/>
<path d="M178.39 76.17L184.76 71.02L187.25 62.98C187.68 61.32 187.96 60.47 188.52 60.02C189.24 59.44 190.29 59.59 191.01 60.47C191.75 61.38 191.36 62.43 191.14 63.11L188.84 70.14L196.48 69.32C197.96 69.2 198.37 69.56 198.75 70.03C199.47 70.92 199.4 71.98 198.68 72.56C198.14 72.99 197.32 73.12 195.65 73.2L187.16 73.97L180.79 79.12C179.81 79.91 178.73 79.82 178 78.91C177.26 78 177.42 76.95 178.4 76.16L178.39 76.17Z" fill="white"/>
<path d="M48.71 157.65C54.3 154.37 60.38 155.37 63.49 160.67C64.51 162.4 64.96 164.12 64.98 165.47C64.98 166.61 64.59 167.54 63.9 167.95C63.02 168.47 61.94 168.23 61.49 167.45C61.32 167.17 61.26 166.75 61.25 166.2C61.28 164.83 61.07 163.7 60.39 162.53C58.54 159.37 54.53 159.01 50.89 161.15C47.24 163.29 45.8 166.71 47.7 169.94C48.57 171.41 49.5 172.19 50.37 172.72C50.9 173.03 51.29 173.29 51.49 173.63C52.04 174.56 51.72 175.44 50.81 175.97C50.14 176.36 49.23 176.24 48.3 175.77C47.01 175.1 45.58 173.75 44.51 171.91C41.23 166.32 43.46 160.74 48.73 157.64L48.71 157.65Z" fill="white"/>
<path d="M55.48 184.4C55.98 183.84 56.87 183.35 57.84 182.86L72.21 175.41C73.76 174.59 74.93 174.55 75.95 175.47C76.95 176.38 77.03 177.54 76.37 179.17L70.25 194.63C69.97 195.3 69.65 196.15 69.13 196.73C68.51 197.42 67.57 197.43 66.75 196.68C65.86 195.88 65.97 195.08 66.56 193.8L67.58 191.37L60.97 185.4L58.7 186.66C57.28 187.48 56.58 187.49 55.77 186.77C54.95 186.03 54.86 185.1 55.48 184.41V184.4ZM69.07 187.98L73.06 178.77L73.02 178.73L64.19 183.58L69.07 187.98Z" fill="white"/>
<path d="M78.31 202.05L85.54 185.89C86.03 184.79 87.03 184.39 88.07 184.85C88.92 185.23 89.15 185.82 89.38 186.69L93 203.06L93.05 203.08L98.18 191.61C98.69 190.46 99.7 190.05 100.74 190.52C101.81 191 102.17 192.02 101.66 193.17L94.45 209.3C93.95 210.42 92.97 210.84 91.9 210.36C91.11 210 90.82 209.39 90.59 208.29L86.99 192.09L86.93 192.06L81.77 203.59C81.26 204.74 80.25 205.15 79.19 204.67C78.12 204.19 77.78 203.19 78.3 202.04L78.31 202.05Z" fill="white"/>
<path d="M104.61 212.56C104.69 211.81 105.12 210.89 105.61 209.92L112.82 195.44C113.59 193.86 114.51 193.14 115.88 193.29C117.22 193.43 117.97 194.32 118.4 196.03L122.57 212.12C122.74 212.83 122.98 213.7 122.9 214.48C122.8 215.4 122.05 215.96 120.95 215.85C119.76 215.73 119.38 215.02 119.1 213.64L118.49 211.07L109.63 210.15L108.54 212.51C107.87 214.01 107.31 214.43 106.24 214.32C105.14 214.2 104.52 213.51 104.61 212.58V212.56ZM117.69 207.44L115.48 197.65H115.42L111.15 206.76L117.69 207.44Z" fill="white"/>
<path d="M133.43 213.31L129.84 196.04C129.62 194.98 130.25 194.05 131.34 193.83L137.04 192.64C142.5 191.5 147.25 195.14 148.5 201.17C149.9 207.9 146.21 212.56 141.33 213.57L135.69 214.74C134.6 214.97 133.65 214.34 133.43 213.31ZM140.08 210.24C143.72 209.48 145.43 206.49 144.46 201.82C143.58 197.59 140.77 195.45 137.31 196.17L133.9 196.88L136.82 210.92L140.08 210.24Z" fill="white"/>
<path d="M159.99 205.7L152.48 189.74C151.94 188.6 152.26 187.59 153.32 187.09C154.38 186.59 155.39 186.98 155.93 188.12L163.43 204.08C163.97 205.22 163.62 206.25 162.56 206.74C161.5 207.24 160.52 206.84 159.98 205.7H159.99Z" fill="white"/>
<path d="M172.39 200.07C171.93 199.48 171.59 198.52 171.26 197.48L166.3 182.09C165.75 180.42 165.9 179.27 166.98 178.41C168.04 177.57 169.2 177.69 170.69 178.61L184.92 187.21C185.54 187.6 186.32 188.05 186.8 188.67C187.38 189.4 187.23 190.32 186.36 191.01C185.42 191.75 184.66 191.52 183.49 190.72L181.26 189.31L174.28 194.84L175.15 197.29C175.72 198.83 175.62 199.52 174.77 200.19C173.9 200.88 172.97 200.81 172.39 200.08V200.07ZM178.18 187.27L169.76 181.81L169.71 181.85L173.02 191.35L178.17 187.27H178.18Z" fill="white"/>
<path d="M193.63 180.43L178.86 170.68C177.86 170.02 177.62 168.96 178.25 168.01C178.76 167.23 179.39 167.11 180.28 167.01L197.02 166.1L197.05 166.05L186.56 159.12C185.51 158.43 185.27 157.37 185.9 156.42C186.54 155.44 187.61 155.25 188.66 155.94L203.4 165.68C204.43 166.36 204.68 167.39 204.03 168.36C203.55 169.09 202.9 169.26 201.78 169.32L185.21 170.24L185.18 170.29L195.72 177.25C196.77 177.94 197.01 179 196.36 179.98C195.72 180.96 194.67 181.13 193.62 180.43H193.63Z" fill="white"/>
</g>
<defs>
<clipPath id="clip0_7_7662">
<rect width="246.4" height="246.4" fill="white"/>
</clipPath>
</defs>
</svg>
